<svg y="0px" x="0px" viewBox="8.96 1.92 46.08 60.32" data-name="AI Privacy Guardian" xmlns="http://www.w3.org/2000/svg"
     style="max-height: 500px" width="46.08" height="60.32">
    <path d="m48,28c1.65,0,3-1.35,3-3v-1h2c1.1,0,2-.9,2-2v-10c0-1.1-.9-2-2-2h-2v-1c0-1.65-1.35-3-3-3h-9v-2c0-1.1-.9-2-2-2h-10c-1.1,0-2,.9-2,2v2h-9c-1.65,0-3,1.35-3,3v1h-2c-1.1,0-2,.9-2,2v10c0,1.1.9,2,2,2h2v1c0,1.65,1.35,3,3,3h9v2h-9c-1.65,0-3,1.35-3,3v2h-2c-1.1,0-2,.9-2,2v10c0,1.1.9,2,2,2h2v2c0,1.65,1.35,3,3,3h1.42c.55,0,1-.45,1-1s-.45-1-1-1h-1.42c-.55,0-1-.45-1-1v-18c0-.55.45-1,1-1h32c.55,0,1,.45,1,1v18c0,.55-.45,1-1,1h-1.42c-.55,0-1,.45-1,1s.45,1,1,1h1.42c1.65,0,3-1.35,3-3v-2h2c1.1,0,2-.9,2-2v-10c0-1.1-.9-2-2-2h-2v-2c0-1.65-1.35-3-3-3h-9v-2h9Zm-32-2c-.55,0-1-.45-1-1V9c0-.55.45-1,1-1h32c.55,0,1,.45,1,1v16c0,.55-.45,1-1,1H16Z"/>
    <path d="m40,10c-3.86,0-7,3.14-7,7s3.14,7,7,7,7-3.14,7-7-3.14-7-7-7Zm0,12c-2.76,0-5-2.24-5-5s2.24-5,5-5,5,2.24,5,5-2.24,5-5,5Z"/>
    <circle r="3" cy="17" cx="40"/>
    <circle r="3" cy="17" cx="24"/>
    <path d="m24,10c-3.86,0-7,3.14-7,7s3.14,7,7,7,7-3.14,7-7-3.14-7-7-7Zm0,12c-2.76,0-5-2.24-5-5s2.24-5,5-5,5,2.24,5,5-2.24,5-5,5Z"/>
    <path d="m42.71,37.04c-5.21.4-10.1-2.84-10.15-2.87-.34-.23-.78-.23-1.12,0-.05.03-4.92,3.27-10.15,2.87-.43-.03-.84.22-1,.63-.13.32-3.01,7.92.25,15.01,1.97,4.25,5.71,7.37,11.13,9.26.11.04.22.06.33.06s.22-.02.33-.06c5.42-1.89,9.16-5.01,11.13-9.26,3.26-7.09.38-14.69.25-15.01-.15-.41-.57-.66-1-.63Zm-4.42,7.9l-6.46,7.43c-.2.23-.47.34-.75.34-.21,0-.43-.06-.6-.2l-3.7-2.78c-.44-.34-.53-.96-.19-1.4.33-.44.95-.53,1.4-.2l2.94,2.22,5.85-6.72c.37-.42,1-.46,1.41-.1.42.36.47,1,.1,1.41Z"/>
</svg>